<?xml version="1.0" encoding="utf-8"?>
<svg width="1024px" height="1024px" viewBox="0 0 1024 1024" version="1.1" xmlns:xlink="http://www.w3.org/1999/xlink" xmlns="http://www.w3.org/2000/svg">
  <defs>
    <path d="M1024 0L1024 0L1024 1024L0 1024L0 0L1024 0Z" id="path_1" />
    <clipPath id="clip_1">
      <use xlink:href="#path_1" clip-rule="evenodd" fill-rule="evenodd" />
    </clipPath>
  </defs>
  <g id="Icon 1024" clip-path="url(#clip_1)">
    <path d="M1024 0L1024 0L1024 1024L0 1024L0 0L1024 0Z" id="Icon-1024" fill="#09090B" stroke="none" />
    <path d="M229.6 506.2C260 506.2 286.4 480.6 286.4 451C286.4 419.8 260 394.2 229.6 394.2C198.4 394.2 172 419.8 172 451C172 480.6 198.4 506.2 229.6 506.2L229.6 506.2ZM229.6 806.2C260 806.2 286.4 780.6 286.4 750.2C286.4 719 260 693.4 229.6 693.4C198.4 693.4 172 719 172 750.2C172 780.6 198.4 806.2 229.6 806.2L229.6 806.2ZM422.4 796.6L648.8 219L573.6 219L348 796.6L422.4 796.6ZM625.6 796.6L852 219L776.8 219L551.2 796.6L625.6 796.6Z" id="Path" fill="#FAFAFA" stroke="none" />
  </g>
</svg>