<svg viewBox="0 0 2000 1000" xmlns="http://www.w3.org/2000/svg"><mask id="b" x="0" y="0" width="2000" height="1000"><path fill="url(#a)" d="M0 0h2000v1000H0z"/></mask><path fill="#09090B" d="M0 0h2000v1000H0z"/><g style="transform-origin:center center" stroke="#18181b" stroke-width="2" mask="url(#b)"><path fill="none" d="M0 0h100v100H0zM100 0h100v100H100z"/><path fill="#18181b77" d="M200 0h100v100H200z"/><path fill="none" d="M300 0h100v100H300zM400 0h100v100H400zM500 0h100v100H500zM600 0h100v100H600zM700 0h100v100H700zM800 0h100v100H800z"/><path fill="#18181b55" d="M900 0h100v100H900z"/><path fill="none" d="M1000 0h100v100h-100zM1100 0h100v100h-100zM1200 0h100v100h-100zM1300 0h100v100h-100zM1400 0h100v100h-100zM1500 0h100v100h-100zM1600 0h100v100h-100z"/><path fill="#18181be5" d="M1700 0h100v100h-100z"/><path fill="#18181b89" d="M1800 0h100v100h-100z"/><path fill="#18181b70" d="M1900 0h100v100h-100z"/><path fill="none" d="M0 100h100v100H0z"/><path fill="#18181b99" d="M100 100h100v100H100z"/><path fill="none" d="M200 100h100v100H200z"/><path fill="#18181bba" d="M300 100h100v100H300z"/><path fill="none" d="M400 100h100v100H400zM500 100h100v100H500zM600 100h100v100H600zM700 100h100v100H700zM800 100h100v100H800zM900 100h100v100H900z"/><path fill="#18181b6b" d="M1000 100h100v100h-100z"/><path fill="none" d="M1100 100h100v100h-100zM1200 100h100v100h-100z"/><path fill="#18181bdc" d="M1300 100h100v100h-100z"/><path fill="#18181b5c" d="M1400 100h100v100h-100z"/><path fill="#18181bc8" d="M1500 100h100v100h-100z"/><path fill="#18181bde" d="M1600 100h100v100h-100z"/><path fill="#18181b25" d="M1700 100h100v100h-100z"/><path fill="none" d="M1800 100h100v100h-100zM1900 100h100v100h-100z"/><path fill="#18181b15" d="M0 200h100v100H0z"/><path fill="none" d="M100 200h100v100H100z"/><path fill="#18181b10" d="M200 200h100v100H200z"/><path fill="none" d="M300 200h100v100H300zM400 200h100v100H400zM500 200h100v100H500zM600 200h100v100H600zM700 200h100v100H700zM800 200h100v100H800z"/><path fill="#18181b93" d="M900 200h100v100H900z"/><path fill="none" d="M1000 200h100v100h-100zM1100 200h100v100h-100z"/><path fill="#18181be6" d="M1200 200h100v100h-100z"/><path fill="none" d="M1300 200h100v100h-100z"/><path fill="#18181bb9" d="M1400 200h100v100h-100z"/><path fill="#18181bb4" d="M1500 200h100v100h-100z"/><path fill="#18181bc0" d="M1600 200h100v100h-100z"/><path fill="#18181b5e" d="M1700 200h100v100h-100z"/><path fill="none" d="M1800 200h100v100h-100zM1900 200h100v100h-100zM0 300h100v100H0z"/><path fill="#18181b5c" d="M100 300h100v100H100z"/><path fill="#18181bb2" d="M200 300h100v100H200z"/><path fill="#18181be9" d="M300 300h100v100H300z"/><path fill="none" d="M400 300h100v100H400zM500 300h100v100H500zM600 300h100v100H600zM700 300h100v100H700zM800 300h100v100H800zM900 300h100v100H900z"/><path fill="#18181bfb" d="M1000 300h100v100h-100z"/><path fill="#18181b86" d="M1100 300h100v100h-100z"/><path fill="#18181b60" d="M1200 300h100v100h-100z"/><path fill="none" d="M1300 300h100v100h-100z"/><path fill="#18181ba1" d="M1400 300h100v100h-100z"/><path fill="none" d="M1500 300h100v100h-100z"/><path fill="#18181b77" d="M1600 300h100v100h-100z"/><path fill="none" d="M1700 300h100v100h-100z"/><path fill="#18181b79" d="M1800 300h100v100h-100z"/><path fill="none" d="M1900 300h100v100h-100z"/><path fill="#18181bda" d="M0 400h100v100H0z"/><path fill="none" d="M100 400h100v100H100zM200 400h100v100H200zM300 400h100v100H300zM400 400h100v100H400zM500 400h100v100H500z"/><path fill="#18181b8a" d="M600 400h100v100H600z"/><path fill="#18181b16" d="M700 400h100v100H700z"/><path fill="none" d="M800 400h100v100H800zM900 400h100v100H900zM1000 400h100v100h-100z"/><path fill="#18181bcc" d="M1100 400h100v100h-100z"/><path fill="#18181bb1" d="M1200 400h100v100h-100z"/><path fill="none" d="M1300 400h100v100h-100zM1400 400h100v100h-100zM1500 400h100v100h-100zM1600 400h100v100h-100zM1700 400h100v100h-100z"/><path fill="#18181b67" d="M1800 400h100v100h-100z"/><path fill="none" d="M1900 400h100v100h-100z"/><path fill="#18181b63" d="M0 500h100v100H0z"/><path fill="none" d="M100 500h100v100H100zM200 500h100v100H200zM300 500h100v100H300zM400 500h100v100H400z"/><path fill="#18181b5e" d="M500 500h100v100H500z"/><path fill="none" d="M600 500h100v100H600zM700 500h100v100H700zM800 500h100v100H800z"/><path fill="#18181bad" d="M900 500h100v100H900z"/><path fill="none" d="M1000 500h100v100h-100z"/><path fill="#18181b4a" d="M1100 500h100v100h-100z"/><path fill="#18181b07" d="M1200 500h100v100h-100z"/><path fill="none" d="M1300 500h100v100h-100z"/><path fill="#18181b37" d="M1400 500h100v100h-100z"/><path fill="none" d="M1500 500h100v100h-100z"/><path fill="#18181bad" d="M1600 500h100v100h-100z"/><path fill="none" d="M1700 500h100v100h-100zM1800 500h100v100h-100zM1900 500h100v100h-100z"/><path fill="#18181b2e" d="M0 600h100v100H0z"/><path fill="none" d="M100 600h100v100H100z"/><path fill="#18181bfe" d="M200 600h100v100H200z"/><path fill="none" d="M300 600h100v100H300zM400 600h100v100H400z"/><path fill="#18181b5c" d="M500 600h100v100H500z"/><path fill="none" d="M600 600h100v100H600zM700 600h100v100H700zM800 600h100v100H800zM900 600h100v100H900zM1000 600h100v100h-100zM1100 600h100v100h-100zM1200 600h100v100h-100zM1300 600h100v100h-100z"/><path fill="#18181b39" d="M1400 600h100v100h-100z"/><path fill="none" d="M1500 600h100v100h-100zM1600 600h100v100h-100zM1700 600h100v100h-100zM1800 600h100v100h-100zM1900 600h100v100h-100zM0 700h100v100H0zM100 700h100v100H100z"/><path fill="#18181b1e" d="M200 700h100v100H200z"/><path fill="none" d="M300 700h100v100H300zM400 700h100v100H400z"/><path fill="#18181bb4" d="M500 700h100v100H500z"/><path fill="#18181b35" d="M600 700h100v100H600z"/><path fill="none" d="M700 700h100v100H700zM800 700h100v100H800zM900 700h100v100H900zM1000 700h100v100h-100zM1100 700h100v100h-100zM1200 700h100v100h-100zM1300 700h100v100h-100zM1400 700h100v100h-100zM1500 700h100v100h-100zM1600 700h100v100h-100z"/><path fill="#18181bf8" d="M1700 700h100v100h-100z"/><path fill="#18181b2a" d="M1800 700h100v100h-100z"/><path fill="none" d="M1900 700h100v100h-100z"/><path fill="#18181b8d" d="M0 800h100v100H0z"/><path fill="#18181be9" d="M100 800h100v100H100z"/><path fill="#18181bc9" d="M200 800h100v100H200z"/><path fill="none" d="M300 800h100v100H300zM400 800h100v100H400zM500 800h100v100H500z"/><path fill="#18181bd5" d="M600 800h100v100H600z"/><path fill="none" d="M700 800h100v100H700zM800 800h100v100H800z"/><path fill="#18181bcb" d="M900 800h100v100H900z"/><path fill="#18181ba9" d="M1000 800h100v100h-100z"/><path fill="#18181bec" d="M1100 800h100v100h-100z"/><path fill="none" d="M1200 800h100v100h-100z"/><path fill="#18181b8c" d="M1300 800h100v100h-100z"/><path fill="none" d="M1400 800h100v100h-100zM1500 800h100v100h-100zM1600 800h100v100h-100zM1700 800h100v100h-100zM1800 800h100v100h-100zM1900 800h100v100h-100zM0 900h100v100H0z"/><path fill="#18181be8" d="M100 900h100v100H100z"/><path fill="none" d="M200 900h100v100H200zM300 900h100v100H300zM400 900h100v100H400zM500 900h100v100H500zM600 900h100v100H600z"/><path fill="#18181b99" d="M700 900h100v100H700z"/><path fill="#18181b62" d="M800 900h100v100H800z"/><path fill="#18181b1d" d="M900 900h100v100H900z"/><path fill="none" d="M1000 900h100v100h-100z"/><path fill="#18181b2c" d="M1100 900h100v100h-100z"/><path fill="none" d="M1200 900h100v100h-100zM1300 900h100v100h-100z"/><path fill="#18181b51" d="M1400 900h100v100h-100z"/><path fill="none" d="M1500 900h100v100h-100z"/><path fill="#18181b13" d="M1600 900h100v100h-100z"/><path fill="none" d="M1700 900h100v100h-100zM1800 900h100v100h-100zM1900 900h100v100h-100z"/></g><defs><radialGradient id="a"><stop offset="0" stop-color="#fff"/><stop offset="1" stop-color="#fff" stop-opacity="0"/></radialGradient></defs></svg>