<?xml version="1.0" encoding="utf-8"?>
<svg width="680.00006px" height="587.2px" viewBox="0 0 680.00006 587.2" version="1.1" xmlns:xlink="http://www.w3.org/1999/xlink" xmlns="http://www.w3.org/2000/svg">
  <path d="M57.6 287.2C88 287.2 114.4 261.6 114.4 232C114.4 200.8 88 175.2 57.6 175.2C26.4 175.2 0 200.8 0 232C0 261.6 26.4 287.2 57.6 287.2L57.6 287.2ZM57.6 587.2C88 587.2 114.4 561.6 114.4 531.2C114.4 500 88 474.4 57.6 474.4C26.4 474.4 0 500 0 531.2C0 561.6 26.4 587.2 57.6 587.2L57.6 587.2ZM250.4 577.6L476.8 0L401.6 0L176 577.6L250.4 577.6ZM453.6 577.6L680 0L604.8 0L379.2 577.6L453.6 577.6Z" id="Path" fill="#FAFAFA" stroke="none" />
</svg>